<?xml version="1.0" encoding="utf-8"?>
<!-- Generator: Adobe Illustrator 24.2.0, SVG Export Plug-In . SVG Version: 6.00 Build 0)  -->
<svg version="1.1" id="Layer_1" xmlns="http://www.w3.org/2000/svg" xmlns:xlink="http://www.w3.org/1999/xlink" x="0px" y="0px"
	 viewBox="0 0 1444 1026" style="enable-background:new 0 0 1444 1026;" xml:space="preserve">
<style type="text/css">
	.st0{filter:url(#Adobe_OpacityMaskFilter);}
	.st1{fill:url(#SVGID_1_);}
	.st2{fill:none;stroke:#000000;}
	.st3{mask:url(#mask0_1_);}
	.st4{fill:url(#SVGID_2_);}
	.st5{fill:#FFFFFF;}
</style>
<defs>
	<filter id="Adobe_OpacityMaskFilter" filterUnits="userSpaceOnUse" x="-1124.3" y="-304.2" width="3843.5" height="1330.2">
		<feColorMatrix  type="matrix" values="1 0 0 0 0  0 1 0 0 0  0 0 1 0 0  0 0 0 1 0"/>
	</filter>
</defs>
<mask maskUnits="userSpaceOnUse" x="-1124.3" y="-304.2" width="3843.5" height="1330.2" id="mask0_1_">
	<g class="st0">
		
			<linearGradient id="SVGID_1_" gradientUnits="userSpaceOnUse" x1="722" y1="1022.8898" x2="722" y2="-1.6102" gradientTransform="matrix(1 0 0 -1 0 1023.8898)">
			<stop  offset="0.375" style="stop-color:#2F80BB;stop-opacity:0.75"/>
			<stop  offset="0.8542" style="stop-color:#3FFFEC"/>
		</linearGradient>
		<path class="st1" d="M699,1H1v1024.5h1442v-630c0,0-23.5-246.5-312-246.5S699,1,699,1z"/>
		<path class="st2" d="M699,1H1v1024.5h1442v-630c0,0-23.5-246.5-312-246.5S699,1,699,1z"/>
	</g>
</mask>
<g class="st3">
	<g>
		
			<linearGradient id="SVGID_2_" gradientUnits="userSpaceOnUse" x1="722" y1="1022.8898" x2="722" y2="-1.6102" gradientTransform="matrix(1 0 0 -1 0 1023.8898)">
			<stop  offset="0.375" style="stop-color:#2F80BB;stop-opacity:0.75"/>
			<stop  offset="0.8542" style="stop-color:#3FFFEC"/>
		</linearGradient>
		<path class="st4" d="M699,1H1v1024.5h1442v-630c0,0-23.5-246.5-312-246.5S699,1,699,1z"/>
		<path class="st2" d="M699,1H1v1024.5h1442v-630c0,0-23.5-246.5-312-246.5S699,1,699,1z"/>
	</g>
	<ellipse class="st5" cx="-835.3" cy="371.4" rx="289" ry="290.5"/>
	<path class="st5" d="M-479,279.3c0,153.7-129.5,278.3-289.2,278.3c-159.7,0-289.2-124.6-289.2-278.3C-1057.3,125.6-927.9,1-768.2,1
		C-608.5,1-479,125.6-479,279.3z"/>
	<ellipse class="st5" cx="-768.2" cy="-19.7" rx="289" ry="284.5"/>
	<ellipse class="st5" cx="2198.5" cy="69.3" rx="289.2" ry="278.3"/>
	<ellipse class="st5" cx="2430.1" cy="255.1" rx="289" ry="274.8"/>
</g>
</svg>
